<?xml version="1.0" encoding="UTF-8"?>
<svg width="292px" height="292px" viewBox="0 0 292 292" version="1.1" xmlns="http://www.w3.org/2000/svg" xmlns:xlink="http://www.w3.org/1999/xlink">
    <!-- Generator: Sketch 54.1 (76490) - https://sketchapp.com -->
    <title>pedal-markt-main</title>
    <desc>Created with Sketch.</desc>
    <g id="pedal-markt-main" stroke="none" stroke-width="1" fill="none" fill-rule="evenodd">
        <g id="HorizontalMonochrome" transform="translate(13.000000, 20.000000)" fill="#FFFFFF" fill-rule="nonzero">
            <path d="M213.47316,147.688106 C213.239414,149.471089 212.672826,151.193831 211.803096,152.766025 C209.777212,156.043754 206.20752,158.037395 202.36498,158.037128 C201.665541,158.061528 200.967841,157.952474 200.308903,157.715754 C199.608776,157.540739 199.126936,156.896727 199.154611,156.172964 C199.154611,155.272938 199.089691,154.437903 199.089691,153.537861 C198.9932,152.40428 198.9932,151.264503 199.089691,150.130922 C199.154611,149.423166 199.024771,148.652227 199.024771,147.880392 C198.961653,146.145332 198.989617,143.670353 198.924681,141.934429 C198.884563,141.340036 198.940283,140.74304 199.089691,140.166473 C199.217746,139.202351 199.475656,139.009152 200.438759,138.880977 C201.594852,138.75189 202.814063,138.559604 203.968355,138.495508 C205.588622,138.390307 207.207344,138.723245 208.655845,139.45963 C209.787834,140.022749 210.810335,140.78463 211.675025,141.709264 C213.110426,143.345757 213.766623,145.527629 213.47316,147.688106 Z M21.8496063,149.848375 C21.548714,151.445154 20.9761621,152.977995 20.1570478,154.379706 C19.6534548,155.135578 19.0648339,155.830723 18.4028155,156.451407 C17.285995,157.408292 16.0195554,158.17364 14.6545206,158.716617 C13.4686956,159.34641 12.1115265,159.573571 10.7863025,159.364073 C10.726349,159.364073 10.726349,159.29988 10.6646751,159.29988 C9.45521787,159.040337 9.03207014,158.781772 9.09199118,157.033758 C9.14332352,156.495828 9.16391521,155.955387 9.15366506,155.415093 C9.15366506,151.725655 9.09199118,149.524638 9.15366506,146.158921 C9.15366506,144.281641 9.21533894,142.340168 9.39521567,140.397814 C9.33851742,139.678086 9.83632358,139.033106 10.5447194,138.908464 C11.3401645,138.733707 12.148668,138.625425 12.9619297,138.584728 C14.338407,138.514739 15.7050149,138.852469 16.8918217,139.555921 C17.038568,139.666913 17.2015266,139.754461 17.3749229,139.815464 C19.1901264,140.702109 20.5969016,142.254584 21.3048149,144.152374 C22.0885159,145.943703 22.2794582,147.940078 21.8496063,149.848375 L21.8496063,149.848375 Z M43.1694546,180.849611 C43.1691625,180.868967 43.0679849,182.679837 43.0319543,182.891415 C42.8665737,183.282416 42.5009365,183.550898 42.0796447,183.590682 C40.6241103,183.947459 39.1294697,184.118001 37.6313026,184.098249 C36.1083149,184.035245 35.0840741,184.172055 33.4314738,184.108155 C33.3619771,184.108155 27.3572297,183.810454 26.5131415,183.71757 C26.0684404,183.65367 25.9424796,183.526782 25.8776571,183.145206 C25.8776571,182.890519 25.9424634,168.726148 25.9424634,164.407355 C25.9424634,164.026676 26.0054681,163.6451 26.0054681,163.327408 C26.0787574,162.779794 26.1208291,162.228425 26.1314776,161.675994 C26.1314776,160.786852 26.1962839,158.943705 26.1962839,158.943705 C26.1962839,157.61096 26.1314776,156.277157 26.0684729,154.943435 C25.9424634,153.417116 25.6868252,151.893437 25.6237717,150.305988 L25.6237717,147.700685 C25.560767,147.00233 25.560767,146.366962 25.4977623,145.667695 C25.4863051,145.304683 25.4435416,144.94335 25.3699513,144.587748 C25.2952934,144.513128 24.7198761,142.962484 28.9253855,142.805846 C29.7498678,142.742842 30.5131795,142.742842 31.3394796,142.678958 C33.5373847,142.49885 35.7453399,142.477495 37.9462938,142.615058 L39.7879246,142.615058 C42.3928344,142.743771 42.7114774,143.123538 43.0283188,144.267368 C43.0789028,144.475178 43.1007102,144.688996 43.0931251,144.902784 C43.1561584,145.684763 43.1561584,146.470575 43.0931251,147.252553 C43.1178781,147.596682 43.0744374,147.942323 42.9653141,148.269496 C42.9023094,148.650176 42.5836664,148.904912 42.0130045,149.031751 C40.4450326,149.357363 38.8490065,149.527673 37.2478859,149.540231 C35.6600919,149.476331 34.0704963,149.476331 32.4196976,149.41243 C32.4196976,149.794006 32.4827023,150.174685 32.4827023,150.556261 C32.4096184,152.03832 32.4306626,153.523547 32.545707,155.002919 C32.7795261,156.605526 32.7582595,158.235245 32.4827023,159.831153 C32.4511075,160.126686 32.4511075,160.424764 32.4827023,160.720296 C32.4827023,161.800243 32.4196976,162.817169 32.4827023,163.897116 L32.4827023,164.594575 L32.736539,164.594575 C34.0704963,164.658475 35.4062714,164.658475 36.8032334,164.658475 L40.2973995,164.658475 C40.9571953,164.611844 41.5722052,164.995884 41.8221887,165.610621 C41.8757753,165.839601 41.8975836,166.074916 41.886995,166.309889 C41.759184,167.707511 41.6961793,169.105133 41.5053473,170.565759 C41.3775363,171.32891 40.8698629,171.582702 39.7267213,171.518883 C37.3756319,171.328992 34.9616027,171.265092 32.6104484,171.265092 L32.4844389,171.265092 L32.4844389,171.518883 C32.4196327,172.724822 32.4196327,173.868652 32.3566279,175.011587 C32.2827613,175.580571 32.2400933,176.1532 32.2288169,176.726884 L32.2288169,177.235364 C34.236101,177.055448 36.2543763,177.034382 38.264953,177.17236 L39.980558,177.17236 C42.4576569,177.30016 42.7132951,177.679927 43.030169,178.823774 C43.1166851,179.495677 43.1631962,180.172163 43.1694546,180.849627 L43.1694546,180.849611 Z M67.5585847,161.749654 C67.3744589,158.93573 66.9935936,156.138272 66.4188027,153.377948 C66.1595611,152.540122 65.8442306,151.720834 65.4749652,150.925682 L65.4840864,150.921707 C65.3992848,150.744295 65.3135095,150.568986 65.2213719,150.399232 C65.0153541,150.016673 64.7868491,149.646756 64.5370678,149.291441 L64.5334972,149.284174 C64.4041281,149.100897 64.2711884,148.914737 64.1257679,148.723607 C63.9748292,148.527508 63.8149154,148.324647 63.6423583,148.113428 C62.5031241,146.377381 60.9853188,144.924321 59.203884,143.864286 C57.993583,143.155704 56.7206029,142.560991 55.4012025,142.087744 C53.8390479,141.607505 52.217113,141.351348 50.5835313,141.326874 C50.351559,141.375544 50.1471182,141.51191 50.0125448,141.707733 C49.94954,141.961117 49.94954,142.151742 49.884961,142.405061 C49.8219562,143.165932 49.7591625,143.990979 49.6943725,144.752012 C49.6315625,145.386255 49.441185,153.503679 49.315565,154.328368 C49.3052275,154.392999 49.298611,154.458175 49.2957482,154.523571 C49.2921776,154.55311 49.2921776,154.596172 49.2901976,154.63226 C49.286627,154.698783 49.2830726,154.771579 49.279502,154.856708 C49.2777167,154.914482 49.2741461,154.978024 49.2741461,155.043863 C49.2705755,155.126304 49.2687902,155.215409 49.2668102,155.309776 C49.2632396,155.393211 49.2632396,155.476842 49.2616653,155.568619 C49.2596852,155.65831 49.2580947,155.753378 49.2561146,155.851428 L49.2507587,156.203758 L49.2507587,156.322288 C49.2454029,156.895791 49.2418485,157.554392 49.2418485,158.261219 L49.2418485,158.301299 C49.2418485,159.521624 49.2485839,160.866621 49.2592795,162.124582 C49.2731399,163.792631 49.2937519,165.30277 49.3155488,166.123484 C49.3155488,167.220147 49.1962747,170.89585 49.1933047,174.5637 C49.1923146,175.98682 49.19806,177.538751 49.2507587,178.744412 C49.2507587,178.934646 49.1879488,181.978892 49.82194,182.422005 C49.75913,182.802978 51.4063095,182.612239 53.4342602,182.485547 C55.7803146,181.8536 57.9930987,180.800709 59.9656701,179.377759 C61.510846,178.180959 62.8579027,176.746537 63.9569925,175.127575 C64.2373327,174.67203 64.4982619,174.223931 64.7443245,173.783311 L64.7367938,173.777641 C65.3202959,172.779419 65.7991347,171.723158 66.1656315,170.625798 C66.498515,169.62762 66.7735697,168.610938 66.989416,167.580851 C67.4322594,165.670449 67.6236139,163.709995 67.5585847,161.749637 L67.5585847,161.749654 Z M104.743065,156.422537 C104.844127,157.757038 104.862308,159.096562 104.7975,160.433332 C104.743065,161.436671 104.7975,162.495714 104.743065,163.498205 C104.743065,164.390166 104.743065,164.9471 104.63757,166.284602 C104.590907,166.654222 104.572708,167.026905 104.583134,167.399334 C104.635914,168.735989 104.583134,170.129179 104.69035,171.522386 C104.743134,172.524742 104.743134,173.529198 104.69035,174.531554 C104.63757,175.923034 104.743129,177.371929 104.583134,178.765136 C104.475919,179.490016 104.421484,180.26972 104.315908,180.9946 C104.269685,181.586656 103.826075,182.070171 103.242085,182.16502 C101.791565,182.425631 100.316138,182.519061 98.8444936,182.443495 C98.7511201,182.457866 98.65571,182.438105 98.575628,182.387807 C98.0395359,182.276413 97.8778854,181.997954 97.9339762,181.440157 C98.0411914,179.602338 98.0939712,177.930607 98.1484065,176.258925 C98.2556217,174.198254 98.0939712,172.470036 98.2556217,170.742682 C98.2820891,170.483459 98.2820891,170.2222 98.2556217,169.962977 C98.1294687,168.126903 98.111292,166.284958 98.2011864,164.446734 C98.2556217,163.220609 98.3611814,161.938812 98.3611814,160.657846 C98.4156167,158.149924 98.4569382,155.659125 98.3514434,153.15205 C98.2035073,150.771915 98.1891427,148.385309 98.3084178,146.003553 C98.3628531,144.666898 98.3084178,143.329396 98.3628531,141.991894 C98.3538314,141.656801 98.3720368,141.321527 98.4172884,140.989403 C98.4700683,140.598687 98.6300795,140.375917 99.0061604,140.320229 C100.514307,140.032324 102.06468,140.051261 103.565402,140.375917 C103.994279,140.48731 104.101494,140.654392 104.154274,141.156485 C104.360029,143.602347 104.431614,146.05772 104.368704,148.511476 C104.368704,149.624497 104.368704,150.739228 104.475919,151.85396 C104.637472,153.4142 104.637472,154.918784 104.743048,156.422504 L104.743065,156.422537 Z M117.662655,177.130813 C117.607213,177.742866 117.442593,180.409887 117.442593,181.133055 C117.432881,181.30451 117.39602,181.473316 117.333397,181.633128 C117.156722,182.047766 116.746012,182.312311 116.296919,182.300738 C115.312523,182.356296 114.383552,182.411871 113.400844,182.411871 C112.199745,182.356313 110.998646,182.523004 109.795859,182.467429 C109.277529,182.479339 108.760859,182.404222 108.267191,182.24518 C107.612052,182.078489 107.447415,181.855377 107.447415,181.18863 C107.382843,179.934468 107.512049,178.677829 107.830443,177.463348 C107.859369,177.253728 107.914685,177.048641 107.995063,176.853006 C108.267207,176.297424 108.43014,176.186243 109.196162,176.186243 C110.835713,176.130685 112.473577,176.186243 114.166866,176.241801 C114.567871,176.278854 114.972052,176.260158 115.367964,176.186243 C115.897931,176.112244 116.437448,176.150095 116.952009,176.297376 C117.551772,176.408459 117.662638,176.574303 117.662638,177.130781 L117.662655,177.130813 Z M156.632095,151.472889 C156.566169,152.431894 156.632095,153.391796 156.632095,154.28788 C156.698021,155.632469 156.43615,163.503141 156.307966,165.295242 C156.112022,169.390108 156.502076,176.685484 156.568003,177.901621 C156.568003,178.093061 156.698021,182.31646 156.698021,182.508795 C156.639424,182.830436 156.416965,183.097602 156.112038,183.212543 C155.845043,183.356999 155.559853,183.464628 155.264184,183.532516 C153.596632,183.908537 151.880203,184.016538 150.17893,183.852489 C149.591113,183.724868 149.265182,183.532516 149.135148,183.148741 C148.811772,182.513449 148.634079,181.813576 148.615091,181.100404 C148.681017,180.333733 148.681017,179.565271 148.681017,178.797721 C148.681017,177.96544 148.875128,170.926153 148.875128,169.58246 C148.93922,168.174068 148.93922,166.766556 149.00698,165.358165 C149.071072,163.695411 149.462945,159.983424 148.811035,160.431018 C148.149233,161.907668 147.582831,163.425564 147.115345,164.975286 C146.561968,166.893674 145.8867,168.774493 145.093691,170.60618 C144.969653,170.878039 144.816781,171.135681 144.637726,171.374643 C142.942035,173.741144 141.312206,170.926153 141.312206,170.926153 C140.429708,169.110657 139.835918,167.167605 139.552423,165.167638 C139.084437,163.597587 138.518078,162.058795 137.856732,160.560463 C137.204823,160.176688 137.596696,163.886867 137.660788,165.551429 C137.726714,166.958924 137.660788,168.367332 137.726714,169.775724 C137.79264,171.119401 137.922658,178.158704 137.988568,178.990985 L137.988568,181.293668 C137.968476,181.978604 137.813508,182.652771 137.532603,183.27729 C137.341176,183.69799 136.946056,183.988889 136.488822,184.045753 C134.765617,184.207253 133.027883,184.099311 131.337657,183.72578 C131.045351,183.647041 130.761389,183.539876 130.489803,183.405807 C130.183609,183.308077 129.974104,183.024571 129.969747,182.70206 C129.90382,182.509724 130.099765,178.286325 130.099765,178.094885 C130.163857,176.878829 130.55573,169.583389 130.295709,165.422896 C130.231617,163.695427 129.903837,155.82386 129.969763,154.480183 C129.969763,153.584995 130.035689,152.625093 129.969763,151.665191 C129.905671,150.449135 129.905671,149.233079 129.839745,148.017023 L129.839745,144.944982 C129.872397,144.302111 129.937798,143.661338 130.035689,143.025178 C130.084031,142.688356 130.351133,142.425788 130.687598,142.384336 C131.31291,142.137813 131.971549,141.986933 132.641491,141.936742 L136.878893,141.936742 C137.184893,141.923752 137.49138,141.945158 137.79264,142.000561 C139.032366,142.322326 139.292386,145.968702 139.880203,147.568533 C140.466186,149.232183 141.052169,150.895833 141.509968,152.624165 C141.638185,153.201188 142.486006,155.823843 143.267917,158.51211 C144.115771,155.760025 144.963608,153.00794 145.159552,152.431829 C145.615517,150.703465 146.203334,149.040711 146.789317,147.377061 C147.3753,145.77723 147.63717,142.192864 148.875063,141.809089 C149.176247,141.753052 149.482772,141.731343 149.78881,141.744374 L154.026211,141.744374 C154.690517,141.832895 155.345221,141.983034 155.981922,142.192864 C156.280087,142.281006 156.505462,142.527129 156.567905,142.832793 C156.718785,143.462353 156.806507,144.105494 156.829759,144.752597 C156.763833,145.777214 156.763833,146.800934 156.763833,147.824655 C156.785774,149.042221 156.74178,150.260084 156.632046,151.472856 L156.632095,151.472889 Z M197.143913,186.025921 C197.266757,188.320914 197.266757,188.517991 195.929181,188.780467 C194.646592,189.015834 193.336423,189.059903 192.041016,188.911248 C191.539786,188.988994 191.027044,188.896624 190.584019,188.648773 C190.191848,188.328338 189.967943,187.84489 189.976645,187.337355 C189.925609,186.990183 189.905059,186.639181 189.915231,186.288397 C189.976645,184.386646 189.794107,182.615676 189.915231,180.779307 C190.046322,177.76381 190.026394,174.743606 189.855521,171.730118 C189.792403,169.762983 189.915231,167.796761 190.038076,165.829627 C190.096082,164.12404 190.218926,162.353982 190.157496,160.648395 C190.097786,159.599437 190.038076,158.485096 190.038076,157.10828 C189.974957,155.337261 189.915231,153.304777 190.038076,151.205949 C190.097786,149.895444 189.915231,148.584026 189.915231,147.272592 C189.855521,145.371769 189.794107,143.4047 189.915231,141.502884 C189.998918,140.792568 190.141589,140.090516 190.341755,139.404055 C190.435762,138.931983 190.83395,138.582184 191.312518,138.551262 C191.857829,138.496845 192.405881,138.475012 192.953773,138.485879 C193.680567,138.485879 194.409066,138.551262 195.139268,138.551262 C196.048617,138.616644 196.292586,138.945431 196.475141,139.797296 C196.795513,141.659038 196.937767,143.547273 196.89996,145.436207 C196.991332,146.439784 196.991332,147.449635 196.89996,148.453212 C196.89996,148.78107 196.89996,150.682822 196.961374,151.076063 C197.143929,154.026773 196.961374,156.190984 196.89996,159.075382 C196.84025,160.190651 196.84025,161.305855 196.778836,162.354862 C196.596281,164.715238 196.719126,167.011159 196.657712,169.370606 C196.612023,170.552334 196.652506,171.735834 196.778836,172.911633 C196.84025,173.961503 196.778836,174.813385 196.778836,175.797872 C196.899922,179.206299 197.021598,182.615643 197.143864,186.025905 L197.143913,186.025921 Z M212.933757,187.136336 C213.063483,188.17366 212.867977,188.302894 211.958076,188.562193 C210.937636,188.822936 209.888518,188.953482 208.835544,188.950742 C207.925339,189.026598 207.009676,189.004942 206.10404,188.886141 C204.867089,188.62681 204.737363,188.432992 204.541857,186.877917 C204.477911,185.970722 204.348185,184.997997 204.218458,184.091698 C203.761682,181.565724 203.372504,179.103454 202.917562,176.575671 C202.656259,174.957803 202.396839,173.401849 202.135553,171.846757 C201.940047,170.745744 201.614831,169.709331 201.355378,168.672006 C200.77071,166.146032 200.509424,163.619161 199.924755,161.092274 C199.84165,160.739202 199.927875,160.367433 200.157788,160.087522 C200.387701,159.807611 200.734823,159.651797 201.095926,159.666417 L203.177014,159.666417 C203.827462,159.666417 204.412114,159.731017 205.064413,159.731017 C205.419771,159.732955 205.771897,159.798911 206.10404,159.925748 C206.624345,160.076649 207.022719,160.498152 207.145501,161.027673 C207.925675,164.331642 208.576124,167.700194 209.162626,171.134276 C209.356298,172.36542 209.745477,173.596547 210.008581,174.826777 C210.722975,178.066129 211.632876,181.175366 212.478782,184.285517 C212.71475,185.220298 212.867003,186.174385 212.933724,187.136384 L212.933757,187.136336 Z M267,150.481558 C267,151.045644 266.740548,151.233092 265.244145,151.42142 C264.244612,151.579443 263.22943,151.612574 262.221784,151.520056 C261.377663,151.456694 259.781073,151.546385 258.935118,151.546385 L258.935118,152.800403 C258.999084,153.760014 258.999084,154.722844 258.935118,155.682455 C258.805392,156.997278 258.869338,158.31373 258.805392,159.629334 C258.760841,159.985482 258.782524,160.346837 258.869338,160.695041 C258.960278,161.434639 258.995857,162.180039 258.975774,162.924977 C258.911825,164.01021 258.911825,165.098288 258.975774,166.183521 C259.07495,167.267421 259.07495,168.358166 258.975774,169.442066 C258.846048,170.884411 258.869338,173.038146 258.673897,174.478732 C258.567476,175.540603 258.524768,176.607938 258.546004,177.674957 C258.621397,180.017302 258.534085,182.362074 258.284702,184.692232 C258.220756,185.193836 258.089196,185.382163 257.570307,185.444646 C255.746546,185.809439 253.871115,185.830627 252.039637,185.507129 C251.670109,185.495667 251.352711,185.240165 251.261281,184.880559 L251.261281,183.878215 C251.195501,182.624197 251.261281,181.309456 251.195501,180.056301 C251.011308,177.82622 250.989323,175.585625 251.12972,173.352335 C251.259447,170.909404 251.325227,168.52806 251.259447,166.084282 C251.259447,164.894506 251.12972,163.641352 251.06394,162.450696 C250.966182,160.718746 250.966182,158.982629 251.06394,157.250678 C251.118411,157.003819 251.140525,156.750874 251.12972,156.498264 C250.999994,154.994316 250.999994,153.490367 250.999994,151.798971 C249.635135,151.861454 248.266641,151.861454 246.901781,151.861454 C245.0162,151.861454 244.690984,151.861454 244.040519,151.171522 C243.868873,151.000508 243.71576,150.811719 243.583743,150.608315 C242.998182,149.357668 242.751754,147.974046 242.869348,146.597194 C242.999075,145.908142 243.390071,145.657332 244.884656,145.406538 C246.112948,145.229317 247.352819,145.145475 248.593691,145.155728 C251.456771,145.030763 254.318,145.093245 257.115333,145.030763 C258.087605,145.004809 259.04915,145.000409 260.008876,145.004157 C261.359502,145.009419 262.706524,145.030763 264.074792,145.030763 C264.915817,144.931717 265.760785,145.180476 266.415315,145.719815 C266.546859,145.908142 266.676618,146.033107 266.676618,146.221419 C266.740515,146.97292 266.936021,149.79337 266.999968,150.481542 L267,150.481558 Z M183.682907,160.876314 C183.617127,164.929764 183.421605,168.983197 183.227949,173.034774 C183.227949,173.699142 183.096405,174.430718 183.096405,175.095086 C182.966679,177.686345 182.902733,179.280099 182.771172,181.871359 C182.771172,182.003868 182.966679,183.997918 181.731546,184.06418 C179.129736,184.262951 175.420701,183.79825 175.550427,181.47292 C175.550427,180.874798 175.616207,180.276676 175.680153,179.612292 C174.574746,179.612292 173.33963,179.478854 172.557621,179.412608 C170.600105,179.315951 168.659062,179.003979 166.769333,178.482294 C164.765091,177.792306 163.055616,176.436007 161.923827,174.637863 C161.774008,174.415777 161.633311,174.190905 161.499933,173.964159 C160.481429,172.004462 160.159784,169.754467 160.588198,167.586325 C160.820121,165.781158 161.670929,164.113386 162.994502,162.869435 C163.938318,162.007971 164.988348,161.271642 166.118868,160.678488 C168.081367,159.784682 170.207252,159.309349 172.362115,159.282544 C173.958165,159.080808 175.570056,159.036426 177.174722,159.150035 C177.174722,158.817843 177.240502,158.485667 177.240502,158.153474 C177.332278,155.915257 177.091506,153.675797 176.526108,151.508781 C176.303853,150.734561 176.020988,149.979186 175.680153,149.249714 C175.029705,148.185962 174.508983,147.587857 173.403576,147.655031 C171.775612,147.722223 170.995438,149.914099 170.799948,150.445046 C170.354198,151.756049 170.070698,153.117093 169.955827,154.497551 C169.824267,155.760057 169.630595,156.624109 166.118901,156.291933 C163.126094,156.026932 163.451311,153.635356 163.515273,152.305675 C163.526598,151.926208 163.570616,151.548436 163.646833,151.176589 C163.819622,149.063058 164.416906,147.006528 165.402688,145.130947 C165.815365,144.405618 166.318194,143.735879 166.899091,143.137826 C168.029836,141.809377 169.521008,140.839693 171.190977,140.346882 C173.376471,139.81284 175.68296,140.146098 177.629713,141.277197 C178.100299,141.540542 178.55651,141.828977 178.99639,142.141265 C180.317087,142.959657 181.325438,144.199924 181.85947,145.662839 C182.841095,148.170213 183.433283,150.814061 183.615326,153.501919 C183.798583,155.955928 183.821148,158.419369 183.682875,160.876347 L183.682907,160.876314 Z M7.3055099,186.028594 C7.42835453,188.323587 7.42835453,188.520664 6.09077794,188.78314 C4.80818874,189.018507 3.49801996,189.062576 2.20261318,188.913921 C1.7013831,188.991667 1.18864161,188.899297 0.74561649,188.651446 C0.353445268,188.331011 0.129539935,187.847563 0.138242395,187.340028 C0.0872062347,186.992856 0.0666558108,186.641854 0.0768281955,186.29107 C0.138242395,184.389319 -0.0442960562,182.618349 0.0768281955,180.78198 C0.207919336,177.766483 0.18799086,174.746279 0.017118143,171.732791 C-0.0460002028,169.765656 0.0768281955,167.799434 0.199672824,165.8323 C0.25767873,164.126713 0.380523358,162.356655 0.319092929,160.651068 C0.259382876,159.60211 0.199672824,158.487769 0.199672824,157.110953 C0.136554478,155.339934 0.0768281955,153.30745 0.199672824,151.208622 C0.259382876,149.898117 0.0768281955,148.586699 0.0768281955,147.275265 C0.017118143,145.374442 -0.0442960562,143.407373 0.0768281955,141.505557 C0.160514858,140.795241 0.303185821,140.093189 0.503351756,139.406728 C0.597359145,138.934656 0.995546756,138.584857 1.47411484,138.553935 C2.01942648,138.499518 2.56747798,138.477685 3.11537036,138.488552 C3.84216456,138.488552 4.5706629,138.553935 5.3008654,138.553935 C6.21021428,138.619317 6.45418316,138.948104 6.63673784,139.799969 C6.95710988,141.661711 7.09936408,143.549946 7.06155725,145.43888 C7.15292886,146.442457 7.15292886,147.452308 7.06155725,148.455885 C7.06155725,148.783743 7.06155725,150.685495 7.12297145,151.078736 C7.30552613,154.029446 7.12297145,156.193657 7.06155725,159.078055 C7.0018472,160.193324 7.0018472,161.308528 6.940433,162.357535 C6.75787832,164.717911 6.88072295,167.013832 6.81930875,169.373279 C6.77361994,170.555007 6.81410271,171.738507 6.940433,172.914306 C7.0018472,173.964176 6.940433,174.816058 6.940433,175.800545 C7.06155184,179.208983 7.18324415,182.618332 7.3055099,186.028594 Z M240.758268,187.031948 C239.549151,187.353177 238.294155,187.464116 237.047724,187.359953 C235.749185,187.27244 234.447094,187.250297 233.146348,187.293609 C225.045825,187.293609 225.663407,187.101746 222.201993,187.162779 C218.929642,187.162779 218.445648,186.773904 218.427828,185.063005 C218.400886,182.47621 218.664299,168.564442 218.742349,167.941457 C218.931411,166.039787 219.120507,160.922553 219.120507,160.201144 C219.182343,158.888211 219.120507,155.674521 218.995049,153.247671 C218.931444,151.606733 219.120507,149.638719 219.120507,149.048124 C219.120507,145.768106 219.120507,142.489001 219.056902,139.142622 C218.995065,137.175521 220.31672,136.978362 220.629472,136.978362 C221.081801,136.929484 221.56771,136.91847 222.043021,136.896361 C224.748183,136.767372 227.759037,136.988496 230.379398,137.043778 C232.455535,137.043778 233.335476,137.24092 235.349761,137.24092 L238.369444,137.24092 C238.783247,137.226299 239.194047,137.316611 239.563888,137.503509 C239.827187,137.561946 240.050499,137.735843 240.172352,137.977328 C240.294204,138.218812 240.301751,138.502428 240.192913,138.750098 C239.94192,139.351368 239.626113,139.923249 239.251137,140.455522 C238.307591,141.57128 236.545974,144.720484 236.293306,145.04844 C235.418669,146.151652 234.619928,147.313407 233.902632,148.525633 C233.634983,148.95304 232.769212,150.38069 231.852998,151.929182 C230.153217,154.795512 228.184847,158.178744 227.80143,158.890019 C227.361468,159.611445 226.983342,160.33287 226.54338,161.055208 C226.322207,161.441079 226.322207,161.915926 226.54338,162.301797 C226.605216,162.367212 226.605216,162.432627 226.668838,162.498043 C228.105352,165.120226 229.382845,167.798602 231.019021,170.369187 C231.560161,171.198079 234.414963,176.039151 234.593525,176.339573 C234.971684,176.930168 238.118545,181.784779 239.251153,183.555619 C240.406986,185.368201 241.7952,186.385094 240.758268,187.031948 Z M93.4823556,153.152001 C93.4051293,150.528754 92.9219277,147.933527 92.0500772,145.459376 C91.511865,144.040331 90.5119115,142.845413 89.2123809,142.068405 C88.7754515,141.768104 88.3235585,141.490355 87.8584607,141.236238 C84.3510876,139.153396 79.8590402,139.910164 77.2211287,143.028291 C76.6476154,143.602338 76.1490357,144.247169 75.7373525,144.947312 C74.7632839,146.746708 74.1705091,148.728914 73.9962827,150.769353 C73.9214093,151.127452 73.8779629,151.491451 73.8664429,151.85717 C73.8024969,153.137061 73.4810461,155.440314 76.4464074,155.694985 C79.928969,156.014991 80.1208721,155.182921 80.250436,153.967387 C80.3656811,152.636442 80.6474543,151.325368 81.0891033,150.065117 C81.2826782,149.553802 82.0556629,147.442722 83.6690678,147.377421 C84.765256,147.314042 85.2804926,147.889582 85.9253741,148.913922 C86.2640836,149.61466 86.5445919,150.342271 86.7640415,151.089343 C87.3248959,153.173275 87.5634413,155.331347 87.4713273,157.488016 C87.4713273,157.808021 87.4073812,158.127896 87.4073812,158.447038 C85.8167311,158.337569 84.2193056,158.380668 82.6368093,158.57575 C82.337691,158.603985 82.0578377,158.630396 81.7849957,158.656806 C79.9393283,158.715343 78.1240579,159.144563 76.4463911,159.919118 C75.3299132,160.488217 74.2899155,161.19729 73.3513362,162.029335 C72.045552,163.212235 71.1999722,164.82168 70.9649466,166.571501 C70.5418255,168.661554 70.8611788,170.834363 71.8675601,172.712684 C72.0028856,172.931153 72.1417167,173.147797 72.2897502,173.361737 C73.0078007,174.421136 73.9289315,175.326287 74.9993434,176.024326 C75.6496293,176.459006 76.352697,176.808285 77.0913863,177.063639 C78.9671039,177.56661 80.8910053,177.866863 82.830303,177.959282 C83.6050405,178.023622 84.8308576,178.151455 85.9269809,178.151455 C85.8533814,178.746198 85.8101154,179.344329 85.7973522,179.943507 C85.6677234,182.182421 89.3438599,182.631106 91.9238243,182.438933 C93.1496413,182.374593 92.9560502,180.454708 92.9560502,180.326875 C93.0839262,177.831449 93.1496251,176.296773 93.277501,173.801347 C93.277501,173.162314 93.4073407,172.45798 93.4073407,171.818099 C93.6011266,167.91583 93.4182635,163.571359 93.4821933,159.66909 C93.6422081,157.499698 93.6422624,155.3214 93.4823556,153.152001 Z M198.319433,106.972755 C198.228564,105.341992 197.368388,103.852512 196.003806,102.963018 C195.89252,102.901222 195.776913,102.847614 195.657897,102.802616 C190.479239,84.7349336 194.360814,67.6052064 195.872863,58.4539759 L196.25563,58.2315151 C196.75675,57.9402218 197.065252,57.4029157 197.065149,56.8216082 L197.065538,42.5856638 C197.065538,42.5148557 197.042816,42.4489353 197.038191,42.3789255 C197.043336,42.3986071 197.054047,42.4238771 197.058803,42.4430699 C197.062373,42.3493868 197.064743,41.6492234 197.065149,41.5549537 C197.043266,38.7051206 195.53378,36.0756925 193.088482,34.6278589 C192.674407,34.3811382 192.357225,34.1948798 192.212064,34.1106628 L181.290123,27.7805332 L181.293499,29.1213264 C181.299845,29.6644769 181.267531,30.2705824 181.293499,30.7571157 C181.343697,32.0953799 181.067293,33.4256791 180.488346,34.6322091 C179.163657,37.160918 177.097197,39.2201321 174.56853,40.5312657 C165.591524,45.7357148 150.989308,45.7022007 141.956032,40.4650358 C137.6083,37.9443563 135.337841,34.6757758 135.157948,31.3832123 L135.157559,31.3832123 L135.157559,22.1739146 L135.17262,22.1758046 C135.174405,22.2242265 135.186886,22.272567 135.189661,22.320989 C135.207997,22.6450118 135.245642,22.9676419 135.302395,23.2871474 C135.314876,23.3560656 135.323202,23.4246742 135.337468,23.4934947 C135.416596,23.8777756 135.522115,24.2560999 135.65327,24.6257573 L135.682988,24.7074002 C136.617792,27.0135754 138.234002,28.976874 140.31403,30.3329835 C140.383576,30.3828067 140.455085,30.4319292 140.526221,30.4814591 C140.974769,30.7923242 141.443523,31.0991976 141.956081,31.396328 C147.652099,34.404073 154.07317,35.7509052 160.492328,35.2843415 C165.414653,35.112232 170.230993,33.8019638 174.566355,31.455552 C175.140507,31.1227243 175.661554,30.7783451 176.15449,30.4285078 L176.215109,30.3861467 C185.591421,23.6752237 180.435761,14.1331797 172.352523,11.9891554 C178.441342,15.519283 179.815289,20.7302003 176.503922,25.0064205 C176.258338,25.3225932 175.996326,25.6255529 175.718975,25.9140391 L175.676583,25.9556018 C175.406743,26.2345441 175.115772,26.5081423 174.80367,26.7763965 C174.706988,26.8584304 174.598621,26.9371894 174.497768,27.0180502 C174.248135,27.2206176 173.997122,27.4230872 173.721537,27.6177853 C173.319748,27.89991 172.896762,28.1754688 172.441479,28.4393783 C164.630612,32.9677121 151.927173,32.9446416 144.067373,28.3878607 C142.714415,27.6200106 141.486292,26.6491137 140.42553,25.5087903 C138.899851,23.9720101 138.085906,21.8634858 138.181624,19.6959546 C138.185584,19.6303276 138.190745,19.5647819 138.196685,19.4991549 C138.315555,18.3314375 138.703393,17.2074888 139.329537,16.2161715 L139.337262,16.2033492 C139.509548,15.9251901 139.695822,15.6560121 139.895362,15.3968595 L139.895167,15.3969572 C141.018756,13.9877392 142.40592,12.8125976 143.978627,11.9376378 C140.859397,12.7055335 138.160273,14.661852 136.452661,17.3924408 L134.506526,18.5205163 C132.862682,12.1793769 129.251881,6.52764451 124.196504,2.38296695 C123.931508,2.18470077 123.613171,2.07115135 123.282967,2.05711252 C123.125428,2.06654527 122.978883,2.14129029 122.878403,2.26345984 C122.478813,1.61174769 121.927924,1.06689123 121.272853,0.675489763 C119.55589,-0.367165177 117.366862,-0.189495252 115.83906,1.11651743 C115.394836,1.49034587 115.023203,1.94331399 114.742855,2.45263462 C113.120027,4.267268 112.184006,6.59666518 112.098361,9.03376979 C112.013965,14.4710093 111.752451,19.5458335 111.343927,24.2244676 C109.438057,20.0795157 106.597436,16.4366857 103.046826,13.5842128 C102.781831,13.3859466 102.463494,13.2723972 102.13329,13.2583583 C101.975751,13.2677911 101.829206,13.3425361 101.728726,13.4647057 C101.329135,12.8129797 100.778241,12.2681116 100.12316,11.876703 C98.4061963,10.8340481 96.2171689,11.011718 94.6893666,12.3177307 C94.245143,12.6915591 93.8735097,13.1445272 93.5931621,13.6538479 C91.9703338,15.4684812 91.0343131,17.7978784 90.9486673,20.234983 C90.8508006,26.5496996 90.5185732,32.3886851 89.9878532,37.6672172 C88.0690935,33.175092 85.0820803,29.2239601 81.2885904,26.1600918 C81.0235947,25.9618256 80.7052577,25.8482762 80.3750541,25.8342374 C80.2175149,25.8436701 80.0709699,25.9184151 79.9704897,26.0405847 C79.5708991,25.3888587 79.0200048,24.8439906 78.3649239,24.452582 C76.6479603,23.4099271 74.4589329,23.587597 72.9311306,24.8936097 C72.486907,25.2674381 72.1152737,25.7204062 71.8349261,26.2297269 C70.2120542,28.0443657 69.2760033,30.3737896 69.1903502,32.8109272 C68.8725512,53.287717 66.1095289,68.8061755 62.0059276,76.1903952 C61.9545983,76.292619 61.9542314,76.4131425 62.0049376,76.5156794 C61.7730091,76.8621579 61.6570508,77.273793 61.6738787,77.6908896 C61.7665089,79.3521925 62.6427851,80.8695589 64.0328883,81.7757681 C64.5017577,82.1112727 65.1074704,82.1870193 65.6440048,81.9772439 C65.6915351,81.9473496 65.7368288,81.914013 65.779525,81.8774999 L65.7886462,81.8857603 L68.3463756,80.3968988 C68.3707206,80.3840764 68.3939294,80.3701462 68.4173006,80.3556294 L68.5985731,80.2501177 L68.6637526,80.1542513 C68.6912928,80.1179849 68.7169486,80.0803149 68.7406178,80.0413916 L68.8258089,79.9166872 L68.8236178,79.9135101 C68.997989,79.5912086 69.0845733,79.2284313 69.0746305,78.8617986 C68.9819619,77.2004751 68.1056053,75.683119 66.7154261,74.7769853 C66.5620931,74.6898068 66.4013866,74.6163996 66.2351814,74.5576201 C66.0812606,74.5089846 65.9233303,74.4742089 65.7632626,74.4537051 C72.4323674,67.5432452 74.017727,45.9990541 74.093813,45.5625884 C75.252016,38.9186122 70.2100791,38.3024704 71.4188059,30.228205 C71.448523,30.0296131 71.6749798,29.9170141 71.9695861,29.9103829 C71.9854428,29.9099919 72.0105993,29.9222115 72.0274297,29.9232053 C71.1073691,33.9014153 76.3313901,42.6066489 83.6083235,49.176314 C82.1285916,51.2102514 81.2078424,53.5991442 80.9384937,56.1032133 L81.0672785,56.1778991 L80.9317583,56.1058038 L80.9317583,60.4411177 C80.5155083,60.649355 79.3765216,60.7436246 78.9028175,61.4613027 L78.8824164,61.487257 C78.943225,61.650017 79.012326,61.8095322 79.0894459,61.9651714 C79.6429572,63.0674503 80.2580408,64.1374678 80.9317583,65.1701126 C84.6295118,70.9984895 89.636471,75.8758026 95.5510156,79.4108307 C104.818063,84.8445777 115.110088,88.2829966 125.772596,89.5074301 L125.772596,89.5078211 C125.834111,89.3520271 125.912791,89.2036285 126.007167,89.0653923 C126.4225,88.5091005 126.99903,88.0953474 127.657755,87.88083 L127.662705,87.878549 C127.446175,88.0672966 127.2628,88.2912502 127.120251,88.5410436 C127.016432,88.73268 126.951644,88.9431426 126.929663,89.160167 C126.910934,89.3767996 126.909805,89.5946032 126.926287,89.8114197 C126.937972,90.0422224 126.953878,90.2907352 126.945503,90.5698784 C126.936593,90.8626423 126.428011,91.1901097 126.147086,91.1688151 C115.350307,89.9995317 104.922743,86.5475043 95.5510643,81.040054 C89.6365197,77.5050258 84.6295605,72.6277128 80.931807,66.7993358 L80.931807,69.4199549 C80.9315402,69.9595138 81.0647673,70.4906923 81.3195247,70.965792 C85.1172808,77.8561169 90.6634631,83.6150749 97.3950646,87.6580596 C106.19854,92.8359259 116.036748,95.9885107 126.200483,96.8885541 C126.681117,96.8838781 127.612279,96.9681115 128.167409,96.9648204 C130.036663,96.9537902 130.479855,96.41789 135.715967,93.4506108 L135.675749,93.452794 L152.779425,83.5087108 C149.213263,103.43308 152.454712,116.486661 156.610265,123.222512 L155.340709,124.100983 C155.290489,124.130101 155.24266,124.163187 155.197674,124.199929 L155.117043,124.255715 L155.123779,124.260293 C154.769751,124.615597 154.586771,125.107663 154.622273,125.608939 C154.713302,127.239704 155.573526,128.729142 156.938095,129.618676 C157.398239,129.947981 157.992707,130.022344 158.519283,129.81647 C158.566008,129.787221 158.610494,129.754512 158.652369,129.718615 L158.66149,129.726664 L161.172461,128.264946 L161.204158,128.246552 L161.419708,128.121098 L161.642594,127.793826 L161.619418,127.760312 C161.799415,127.457675 161.892017,127.110747 161.886871,126.758309 C161.796048,125.127574 160.935941,123.638093 159.571423,122.748557 C159.460137,122.686761 159.34453,122.633153 159.225514,122.588155 C154.326806,105.497709 157.536153,89.2433739 159.177765,79.7886427 L171.224232,72.7848743 C167.443915,93.1251148 170.719626,106.411291 174.926093,113.229779 L173.656536,114.10825 C173.606317,114.137367 173.558487,114.170454 173.513501,114.207195 L173.432871,114.262982 L173.439606,114.26756 C173.085578,114.622864 172.902599,115.11493 172.9381,115.616206 C173.029129,117.246971 173.889354,118.736409 175.253922,119.625943 C175.714066,119.955247 176.308534,120.029611 176.83511,119.823736 C176.881836,119.794488 176.926321,119.761779 176.968196,119.725882 L176.977317,119.733931 L179.488288,118.272213 L179.519985,118.253819 L179.735535,118.128365 L179.958422,117.801093 L179.935245,117.767579 C180.115242,117.464942 180.207844,117.118014 180.202699,116.765576 C180.11183,115.134813 179.251654,113.645333 177.887072,112.75584 C177.775785,112.694044 177.660179,112.640436 177.541163,112.595438 C172.510895,95.0458637 176.025154,78.3964296 177.616843,69.0679995 L189.486192,62.1671686 C185.456826,82.9817553 188.778565,96.525259 193.042632,103.436957 L191.773076,104.315428 C191.722856,104.344546 191.675027,104.377632 191.630041,104.414374 L191.54941,104.47016 L191.556146,104.474738 C191.202118,104.830042 191.019138,105.322108 191.05464,105.823385 C191.145669,107.454149 192.005893,108.943587 193.370461,109.833121 C193.830606,110.162426 194.425074,110.236789 194.95165,110.030915 C194.998375,110.001666 195.042861,109.968957 195.084736,109.933061 L195.093857,109.941109 L197.604828,108.479392 L197.636525,108.460997 L197.852075,108.335543 L198.074961,108.008271 L198.051785,107.974757 C198.23185,107.672141 198.32452,107.325211 198.319433,106.972755 Z M128.658787,10.5496609 C128.990447,12.1660129 128.197564,13.0172424 126.887595,12.4510214 C125.378708,11.6218491 124.296406,10.1829962 123.915011,8.49915673 C123.583352,6.88291879 124.376234,6.03167298 125.686204,6.59791021 C127.195044,7.42706567 128.277327,8.86586228 128.658755,10.5496446 L128.658787,10.5496609 Z M124.378571,5.74865212 C124.93405,6.00403348 125.453679,6.33160774 125.924102,6.72295685 C125.680337,6.56385588 125.42415,6.4248111 125.158048,6.3071829 C123.019944,5.38296199 121.725621,6.77247043 122.267085,9.4107019 C122.889695,12.1592256 124.65642,14.5078176 127.11944,15.8611694 C128.607728,16.504569 129.669638,16.0085371 130.005647,14.7688891 C129.838479,16.6272858 128.534011,17.4565364 126.611263,16.6253958 C123.80737,15.0846461 121.796183,12.4109184 121.087491,9.28194052 C120.470866,6.27827961 121.944271,4.6964356 124.378571,5.74865212 Z M114.326768,6.45101504 C114.356485,6.25242306 114.582942,6.13982406 114.877548,6.13319293 C114.893405,6.1328019 114.918561,6.14502144 114.935392,6.1460153 C114.078725,9.84935083 118.550682,17.6463792 125.042069,24.0064547 L116.10726,29.1854383 C116.735896,25.0273403 116.973437,21.9475924 117.001775,21.7853984 C118.159994,15.1414222 113.118008,14.5252804 114.326768,6.45101504 Z M107.509078,21.7509067 C107.840737,23.3672587 107.047854,24.2184882 105.737885,23.6522673 C104.228999,22.8230949 103.146697,21.3842421 102.765301,19.7004026 C102.433642,18.0841646 103.226525,17.2329188 104.536494,17.799156 C106.045347,18.6283044 107.127643,20.0671021 107.509078,21.7508904 L107.509078,21.7509067 Z M93.1770907,17.6522772 C93.2068077,17.4536852 93.4332645,17.3410862 93.7278708,17.334455 C93.7437275,17.334064 93.768884,17.3462836 93.7857145,17.3472774 C92.899331,21.1800097 97.7245329,29.3932845 104.585216,35.8643298 L94.775921,41.5501799 C95.5418457,36.8133156 95.821131,33.1636646 95.852114,32.9867257 C97.010317,26.342668 91.9683638,25.7265262 93.1770907,17.6522609 L93.1770907,17.6522772 Z M85.7507766,34.3268346 C86.082436,35.9431866 85.2895534,36.7944161 83.979584,36.2281951 C82.4707038,35.3990193 81.3884082,33.9601669 81.0070166,32.2763304 C80.6753572,30.6600925 81.4682399,29.8088467 82.7782093,30.3750839 C84.2870595,31.2042395 85.3693497,32.6430432 85.7507766,34.3268346 L85.7507766,34.3268346 Z M78.1794965,33.0590328 C77.5629525,30.0554533 79.0364388,28.4736256 81.4706581,29.5258258 C82.0261372,29.7812072 82.5457654,30.1087815 83.0161893,30.5001306 C82.7724236,30.3410296 82.5162366,30.2019848 82.2501348,30.0843566 C80.1120313,29.1601357 78.8177076,30.5496441 79.3591717,33.1878756 C79.9817819,35.9363993 81.7485068,38.2849913 84.2115265,39.6383432 C85.6998145,40.2817427 86.7617251,39.7857108 87.0977341,38.5460628 C86.9305655,40.4044595 85.626098,41.2337101 83.7033499,40.4025695 C80.8993865,38.8618372 78.8881404,36.1880782 78.1794316,33.0590491 L78.1794965,33.0590328 Z M82.424542,62.7556454 C82.3637493,61.6374424 82.4461786,60.5160306 82.6698093,59.4188961 C83.6084231,55.7595716 85.1449437,52.2817988 87.2168621,49.1270611 C87.2168621,49.1270611 88.6912735,51.9063875 89.7032932,61.0537403 C89.9237936,63.0463401 90.1658473,64.9725797 90.4076738,66.7656425 C91.0293787,65.1037441 91.8303201,63.5151064 92.7962058,62.0280776 C92.7962058,62.0280776 92.8312787,62.0944053 92.8930824,62.2429786 C92.9340956,62.3420221 92.986989,62.4775938 93.0491985,62.6546794 C93.111408,62.831765 93.1822842,63.0499571 93.2603991,63.314388 C93.4163204,63.8432171 93.5987939,64.5565287 93.7874024,65.4921871 C93.8345558,65.7260746 93.8819744,65.9740878 93.929658,66.2362268 C94.0247494,66.7608524 94.1200518,67.3434313 94.2131631,67.9887045 C94.259689,68.3113981 94.3055225,68.6499663 94.3506634,69.004409 C94.3956312,69.3590255 94.4396794,69.730114 94.4828078,70.1176744 C94.6036562,71.2113396 94.7343723,72.2782684 94.8665654,73.2899975 C94.978114,74.1428237 95.0898411,74.9393586 95.1990038,75.6968072 C90.169733,72.2258951 85.8361469,67.8357579 82.424542,62.7556454 Z M95.1622592,61.0252443 C95.0274229,59.9627008 95.0035163,58.8889247 95.0909285,57.8213948 L96.4270444,58.5989323 L96.4272391,58.5968468 L98.0444905,59.5332058 C98.04389,59.5165058 97.5765319,60.5488126 97.5765319,60.5488126 C97.0267417,61.9011084 96.1377939,64.1194113 96.1377939,64.1194113 C95.5648152,63.1839241 95.2297996,62.1213389 95.1622592,61.0252606 L95.1622592,61.0252443 Z M96.0164911,76.2588246 C95.8234381,74.994523 95.8377582,73.7070298 96.0588838,72.4473706 C96.6954346,69.9652836 97.7376166,67.606351 99.1430159,65.466575 C99.1430159,65.466575 99.1780889,65.5329026 99.2398926,65.681476 C99.2809057,65.7806172 99.3337992,65.9160911 99.3960087,66.0931767 C99.4582181,66.2702623 99.5290944,66.4884544 99.6072092,66.7528853 C99.7631305,67.2817144 99.9456041,67.9950261 100.134213,68.9306845 C100.181366,69.1645719 100.228785,69.4125851 100.276468,69.6747242 C100.37156,70.1993498 100.466862,70.7820264 100.559973,71.4272996 C100.606499,71.7499932 100.652333,72.0885288 100.697474,72.4429064 C100.742441,72.7975229 100.78649,73.1686439 100.829618,73.5562695 C100.950466,74.6499347 101.081182,75.7166843 101.213376,76.7284623 C101.349091,77.7655592 101.486185,78.7427803 101.61695,79.6334545 C99.6924808,78.6079306 97.8230787,77.4814978 96.0164911,76.2588246 L96.0164911,76.2588246 Z M101.807133,61.6985899 L103.143443,62.4762252 L103.143638,62.4741397 L104.760695,63.4104987 C104.760094,63.3937987 104.292736,64.4261055 104.292736,64.4261055 C103.743157,65.7784013 102.853998,67.9966065 102.853998,67.9966065 C102.281039,67.0611698 101.946024,65.9986422 101.878463,64.9026187 C101.74377,63.8400038 101.719886,62.766181 101.807198,61.6985899 L101.807133,61.6985899 Z M102.488662,80.0896507 C102.272846,78.7641471 102.27888,77.4117822 102.506515,76.0882724 C103.142988,73.6061857 104.185259,71.2472983 105.590874,69.1076886 L105.590874,69.1074931 C105.9075,69.8206735 106.147264,70.5657921 106.30608,71.3301461 C106.483603,72.0528912 106.677162,72.9789695 106.86676,74.1465711 C107.008805,75.0222722 107.14848,76.0336918 107.277265,77.1970735 C107.317678,77.5616286 107.359021,77.9228708 107.401294,78.2808002 C107.485495,78.9958877 107.572861,79.694878 107.661234,80.3693967 C107.749606,81.0439154 107.838351,81.6937831 107.925522,82.3108211 C107.940778,82.4175221 107.955629,82.5172661 107.970496,82.622012 C106.170576,81.8800415 104.333619,81.0399399 102.488726,80.0896507 L102.488662,80.0896507 Z M105.461456,27.8265439 C102.657563,26.2857942 100.646376,23.6120665 99.9376839,20.4830886 C99.3211398,17.4795091 100.794626,15.8976814 103.228845,16.9498817 C103.784325,17.205263 104.303953,17.5328373 104.774377,17.9241864 C104.530611,17.7650854 104.274424,17.6260406 104.008322,17.5084124 C101.870219,16.5841915 100.575895,17.9737 101.117359,20.6119314 C101.739969,23.3604551 103.506694,25.7090472 105.969714,27.062399 C107.458002,27.7057985 108.519912,27.2097666 108.855921,25.9701187 C108.688688,27.8284501 107.384253,28.6577008 105.461505,27.8265602 L105.461456,27.8265439 Z M108.270198,65.4338592 L109.606314,66.2114945 L109.606314,66.209409 L111.223565,67.1456702 C111.222965,67.1290679 110.755802,68.1613748 110.755802,68.1613748 C110.205817,69.5136706 109.316853,71.7318757 109.316853,71.7318757 C108.743954,70.7963316 108.408878,69.7337793 108.341107,68.6377088 C108.206525,67.5751415 108.182776,66.5013757 108.270247,65.4338592 L108.270198,65.4338592 Z M108.955898,83.0236113 C108.820344,81.9268372 108.853736,80.8156536 109.054901,79.7290765 C109.691549,77.2470235 110.733724,74.8881065 112.139033,72.7482808 C112.280103,73.0465781 112.398007,73.3553694 112.491694,73.6718989 C113.167342,76.0113744 113.614103,78.4114205 113.825635,80.8379591 C113.906266,81.5670746 113.991067,82.2842639 114.078044,82.9811525 C114.161644,83.6522986 114.247046,84.3032417 114.332237,84.9292406 C112.615805,84.388974 110.812136,83.758299 108.955947,83.0236276 L108.955898,83.0236113 Z M114.656204,69.1335288 L115.992514,69.9111641 L115.992514,69.9090787 L117.609766,70.8453399 C117.609165,70.8287376 117.141807,71.8610444 117.141807,71.8610444 C116.592017,73.2133403 115.702858,75.4315454 115.702858,75.4315454 C115.130008,74.496059 114.795001,73.4335592 114.727323,72.3375576 C114.592744,71.2749377 114.568925,70.2011255 114.656252,69.1335451 L114.656204,69.1335288 Z M115.270573,85.2177032 C115.194176,83.7337573 115.312478,82.2461689 115.622439,80.7931867 C116.739475,76.8668186 118.582925,73.1866781 121.056459,69.9450693 C121.056459,69.9450693 122.530676,72.7243957 123.54289,81.8717485 C123.775482,83.9742753 123.995788,85.8026282 124.196293,87.3716335 C121.182644,86.824852 118.202567,86.1057149 115.270622,85.2177358 L115.270573,85.2177032 Z M133.186575,56.5358176 L120.655303,58.4608841 L120.655303,59.5484884 L112.13517,54.6104578 L111.999261,54.5316988 L111.999261,54.5323994 L111.824123,54.4305699 L111.445315,54.2105041 L111.445315,53.1228998 L114.564521,46.3018217 C113.696793,45.4978385 113.190109,44.3755584 113.159849,43.1905474 L113.149738,43.1952234 L113.149738,39.2015353 L113.155873,39.2053152 C113.323872,37.2914914 114.513044,35.619859 116.261802,34.8392732 C121.016272,32.4288252 126.63081,32.439023 131.37656,34.8667265 C133.231065,35.6716191 134.453254,37.4820191 134.510811,39.5094189 C134.471045,39.9131894 134.371828,40.3088037 134.216399,40.683342 L134.213624,40.6889141 C133.603182,41.9611333 132.598251,43.0003402 131.349602,43.6506213 C129.782114,44.5305429 128.051972,45.0794694 126.265451,45.2636821 C126.051475,45.2909236 125.839301,45.3196639 125.621121,45.3392641 C125.025579,45.394252 124.420104,45.4300634 123.79624,45.4272448 C124.888238,45.4492446 125.759944,46.3480302 125.752665,47.4444466 C125.757545,47.969457 125.553088,48.4746268 125.18483,48.847448 C124.816573,49.2202692 124.315096,49.4297815 123.792085,49.4293236 L123.792085,49.4365902 C123.743736,49.434407 123.695598,49.4296332 123.647054,49.4289326 C121.378391,49.427556 119.136114,48.9404283 117.069876,48.0000609 L117.069876,49.8601195 C117.04465,51.1949208 117.831916,52.4105208 119.057414,52.9290327 C120.454342,53.6758144 122.011709,54.0690874 123.594355,54.0747206 C123.654585,54.0762195 123.714019,54.0844962 123.774248,54.0850665 C125.473049,54.136834 127.156086,53.7444683 128.6583,52.9464496 C129.59128,52.4764191 130.289423,51.6403983 130.587589,50.6361418 C130.638053,50.3163327 130.653293,49.9919186 130.633033,49.6687615 L130.613216,48.0631627 C130.88721,47.9340917 131.179236,47.8260873 131.435215,47.677628 C131.806019,47.4609252 132.160306,47.216919 132.495162,46.9476163 L132.495552,46.9473231 L136.507876,49.2728972 L133.186575,56.5358176 Z M155.835625,72.6007177 C155.488168,73.11569 155.196906,73.6666921 154.966868,74.2442133 C154.911106,74.3790951 154.766731,74.4541117 154.624833,74.4219323 C154.482935,74.3897528 154.384703,74.2597178 154.392116,74.1138716 C154.396676,74.0268521 154.398251,73.9651027 154.396076,73.9358736 C154.355164,73.0382634 153.679817,72.2988834 152.792555,72.1803166 C152.210873,72.0264807 151.544,70.5278762 151.502402,72.8277893 C151.361358,72.8577066 151.223299,72.9003776 151.089918,72.9552799 L142.033466,76.3611918 C141.351987,76.6254364 140.777971,77.1106394 140.402549,77.7397678 L140.311807,77.8329459 C140.476459,77.1732753 140.873817,76.5959214 141.430198,76.2079424 C142.227625,75.7004893 143.315309,75.0259707 144.515125,74.3116652 C144.571784,74.2122796 144.621318,74.1291867 144.687682,74.0048896 C145.836786,71.8174421 148.250802,70.6129788 150.681604,71.0142465 C151.454745,70.6309499 152.261391,70.3199077 153.091332,70.0850563 C154.085847,69.3006674 155.382235,69.0139979 156.613009,69.3063099 C157.843783,69.5986219 158.874776,70.4380502 159.413733,71.5866424 C158.139669,70.9406639 156.585067,71.3812555 155.835625,72.6007177 L155.835625,72.6007177 Z M174.151404,62.6080007 C173.803946,63.122973 173.512685,63.6739751 173.282646,64.2514964 C173.226885,64.3863782 173.082509,64.4613948 172.940611,64.4292153 C172.798714,64.3970358 172.700482,64.2670009 172.707894,64.1211546 C172.712455,64.0341352 172.714029,63.9723858 172.711854,63.9431566 C172.670943,63.0455464 171.995595,62.3061665 171.108334,62.1875996 C170.526652,62.0337638 169.859778,60.5351593 169.818181,62.8350724 C169.677136,62.8649897 169.539078,62.9076606 169.405696,62.9625629 L160.349244,66.3684748 C159.667766,66.6327195 159.093749,67.1179225 158.718327,67.7470509 L158.627586,67.8402289 C158.792238,67.1805583 159.189596,66.6032044 159.745976,66.2152255 C160.543403,65.7077724 161.631087,65.0332537 162.830904,64.3189483 C162.887563,64.2195627 162.937096,64.1364698 163.003461,64.0121726 C164.152565,61.8247252 166.56658,60.6202619 168.997383,61.0215296 C169.770524,60.638233 170.57717,60.3271908 171.407111,60.0923394 C172.401632,59.3079536 173.698025,59.0212914 174.9288,59.3136131 C176.159576,59.6059349 177.190565,60.4453742 177.729511,61.5939743 C176.45546,60.947987 174.900861,61.3885564 174.151404,62.6080007 Z M192.268073,52.8151629 C191.920616,53.3301352 191.629354,53.8811373 191.399316,54.4586586 C191.343554,54.5935403 191.199179,54.6685569 191.057281,54.6363775 C190.915383,54.604198 190.817151,54.4741631 190.824564,54.3283168 C190.829124,54.2412974 190.830699,54.179548 190.828524,54.1503188 C190.787612,53.2527086 190.112265,52.5133286 189.225003,52.3947618 C188.643321,52.2409259 187.976253,50.7423214 187.93485,53.0422345 C187.793806,53.072152 187.655748,53.1148229 187.522366,53.1697251 L178.465914,56.575637 C177.784435,56.8398817 177.210419,57.3250846 176.834997,57.954213 L176.744255,58.0473911 C176.908907,57.3877205 177.306265,56.8103666 177.862646,56.4223877 C178.660073,55.9149346 179.747757,55.2404159 180.947573,54.5261104 C181.004232,54.4267248 181.053766,54.3436319 181.12013,54.2193348 C182.269234,52.0318873 184.68325,50.827424 187.114052,51.2286918 C187.88721,50.8454323 188.693852,50.5343915 189.52378,50.2995016 C190.518295,49.5151126 191.814683,49.2284431 193.045457,49.5207551 C194.276232,49.8130671 195.307224,50.6524954 195.846181,51.8010876 C194.572113,51.155099 193.0175,51.5956918 192.268057,52.8151629 L192.268073,52.8151629 Z M150.9704,9.36200295 C149.225653,9.72429621 147.522977,10.2670239 145.889625,10.9814994 C146.587843,10.2306771 147.397721,9.59297699 148.290443,9.09108758 C151.285903,7.49930131 154.642096,6.71650127 158.029803,6.81947493 C158.565988,6.81881106 159.101756,6.84952606 159.634379,6.91146363 C162.365238,7.06855475 165.028657,7.82433222 167.437326,9.12564444 C168.16435,9.54300265 168.839331,10.0457062 169.44804,10.6231573 C168.055437,10.082872 166.62037,9.66013118 165.157762,9.35933095 C165.289604,9.49145391 165.413516,9.6313177 165.528844,9.77818422 C162.82511,9.69395085 161.516926,11.554433 163.355067,12.6201562 C164.040637,12.9780854 164.81023,13.1422146 165.581543,13.0949912 C165.118282,13.7836661 164.497129,14.3506595 163.770278,14.7483277 C160.210225,16.5539012 156.005729,16.5463356 152.452148,14.7279618 C149.937606,13.2699099 149.465022,11.0993773 150.9704,9.36200295 Z" id="Monochrome_On_White"></path>
        </g>
        <path d="M21.518,249 L21.518,232.44 L24.025,232.44 L24.025,239.386 L24.094,239.386 C25.1520053,238.220661 26.4323258,237.638 27.935,237.638 C29.3150069,237.638 30.5301614,238.170828 31.5805,239.2365 C32.6308386,240.302172 33.156,241.731991 33.156,243.526 C33.156,245.258675 32.6270053,246.669328 31.569,247.758 C30.5109947,248.846672 29.2613405,249.391 27.82,249.391 C26.2713256,249.391 25.0370046,248.816006 24.117,247.666 L24.048,247.666 L24.048,249 L21.518,249 Z M30.511,243.503 C30.511,242.506328 30.2196696,241.655337 29.637,240.95 C29.0543304,240.244663 28.2340053,239.892 27.176,239.892 C26.2559954,239.892 25.4855031,240.22933 24.8645,240.904 C24.2434969,241.57867 23.933,242.460328 23.933,243.549 C23.933,244.591672 24.2511635,245.454163 24.8875,246.1365 C25.5238365,246.818837 26.2943288,247.16 27.199,247.16 C28.2416719,247.16 29.0543304,246.795837 29.637,246.0675 C30.2196696,245.339163 30.511,244.484338 30.511,243.503 Z M34.878,243.48 C34.878,241.793325 35.4414944,240.394172 36.5685,239.2825 C37.6955056,238.170828 39.0946583,237.615 40.766,237.615 C42.4833419,237.615 43.8939945,238.170828 44.998,239.2825 C46.1020055,240.394172 46.654,241.793325 46.654,243.48 C46.654,245.120675 46.0943389,246.515994 44.975,247.666 C43.8556611,248.816006 42.4526751,249.391 40.766,249.391 C39.0946583,249.391 37.6955056,248.823672 36.5685,247.689 C35.4414944,246.554328 34.878,245.151342 34.878,243.48 Z M38.397,240.904 C37.798997,241.57867 37.5,242.437328 37.5,243.48 C37.5,244.522672 37.8181635,245.385163 38.4545,246.0675 C39.0908365,246.749837 39.8613288,247.091 40.766,247.091 C41.7320048,247.091 42.5216636,246.749837 43.135,246.0675 C43.7483364,245.385163 44.055,244.522672 44.055,243.48 C44.055,242.467995 43.756003,241.617003 43.158,240.927 C42.559997,240.236997 41.7626717,239.892 40.766,239.892 C39.7846618,239.892 38.995003,240.22933 38.397,240.904 Z M59.002,237.983 L59.002,249 L56.449,249 L56.449,247.643 L56.38,247.643 C55.5519959,248.793006 54.4633401,249.368 53.114,249.368 C52.6079975,249.368 52.1288356,249.283668 51.6765,249.115 C51.2241644,248.946332 50.7910021,248.685668 50.377,248.333 C49.9629979,247.980332 49.6333346,247.474337 49.388,246.815 C49.1426654,246.155663 49.02,245.381338 49.02,244.492 L49.02,237.983 L51.596,237.983 L51.596,244.193 C51.596,245.113005 51.7991646,245.825997 52.2055,246.332 C52.6118354,246.838003 53.1599965,247.091 53.85,247.091 C54.6473373,247.091 55.2759977,246.811169 55.736,246.2515 C56.1960023,245.691831 56.426,244.890672 56.426,243.848 L56.426,237.983 L59.002,237.983 Z M61.046,240.145 L61.046,237.983 L62.426,237.983 L62.426,234.464 L65.002,234.464 L65.002,237.983 L67.739,237.983 L67.739,240.145 L65.002,240.145 L65.002,245.067 C65.002,245.78767 65.1169988,246.285999 65.347,246.562 C65.5770012,246.838001 65.9679972,246.976 66.52,246.976 C66.8880018,246.976 67.3326641,246.914667 67.854,246.792 L67.854,248.885 C67.255997,249.053668 66.6043369,249.138 65.899,249.138 C64.6109936,249.138 63.7101692,248.796837 63.1965,248.1145 C62.6828308,247.432163 62.426,246.470006 62.426,245.228 L62.426,240.145 L61.046,240.145 Z M70.151,249 L70.151,237.983 L72.727,237.983 L72.727,249 L70.151,249 Z M70.013,235.545 L70.013,232.923 L72.865,232.923 L72.865,235.545 L70.013,235.545 Z M86.846,237.983 L86.846,254.405 L84.339,254.405 L84.339,247.689 L84.27,247.689 C83.3193286,248.823672 82.0620078,249.391 80.498,249.391 C79.1333265,249.391 77.9105054,248.865839 76.8295,247.8155 C75.7484946,246.765161 75.208,245.320009 75.208,243.48 C75.208,241.777991 75.7331614,240.375006 76.7835,239.271 C77.8338386,238.166994 79.1333256,237.615 80.682,237.615 C82.1080071,237.615 83.2963286,238.197661 84.247,239.363 L84.316,239.363 L84.316,237.983 L86.846,237.983 Z M77.853,243.48 C77.853,244.476672 78.1404971,245.33533 78.7155,246.056 C79.2905029,246.77667 80.1069947,247.137 81.165,247.137 C82.0543378,247.137 82.8248301,246.795837 83.4765,246.1135 C84.1281699,245.431163 84.454,244.576338 84.454,243.549 C84.454,242.444994 84.1396698,241.548003 83.511,240.858 C82.8823302,240.167997 82.1080046,239.823 81.188,239.823 C80.1453281,239.823 79.3288363,240.187163 78.7385,240.9155 C78.1481637,241.643837 77.853,242.498662 77.853,243.48 Z M99.953,237.983 L99.953,249 L97.4,249 L97.4,247.643 L97.331,247.643 C96.5029959,248.793006 95.4143401,249.368 94.065,249.368 C93.5589975,249.368 93.0798356,249.283668 92.6275,249.115 C92.1751644,248.946332 91.7420021,248.685668 91.328,248.333 C90.9139979,247.980332 90.5843346,247.474337 90.339,246.815 C90.0936654,246.155663 89.971,245.381338 89.971,244.492 L89.971,237.983 L92.547,237.983 L92.547,244.193 C92.547,245.113005 92.7501646,245.825997 93.1565,246.332 C93.5628354,246.838003 94.1109966,247.091 94.801,247.091 C95.5983373,247.091 96.2269977,246.811169 96.687,246.2515 C97.1470023,245.691831 97.377,244.890672 97.377,243.848 L97.377,237.983 L99.953,237.983 Z M108,237.615 C109.778676,237.630333 111.147162,238.209161 112.1055,239.3515 C113.063838,240.493839 113.543,241.839326 113.543,243.388 C113.543,243.740668 113.527667,243.993666 113.497,244.147 L104.987,244.147 C104.987,245.005671 105.31283,245.756997 105.9645,246.401 C106.61617,247.045003 107.386662,247.367 108.276,247.367 C109.303338,247.367 110.123664,246.953004 110.737,246.125 L113.382,246.125 C112.967998,247.075671 112.335504,247.857664 111.4845,248.471 C110.633496,249.084336 109.564006,249.391 108.276,249.391 C106.573991,249.391 105.171006,248.827506 104.067,247.7005 C102.962994,246.573494 102.411,245.136009 102.411,243.388 C102.411,241.777992 102.920828,240.413339 103.9405,239.294 C104.960172,238.174661 106.313325,237.615 108,237.615 Z M108,239.547 C107.156662,239.547 106.466669,239.815331 105.93,240.352 C105.393331,240.888669 105.086667,241.532663 105.01,242.284 L110.967,242.284 C110.890333,241.517329 110.579836,240.869503 110.0355,240.3405 C109.491164,239.811497 108.812671,239.547 108,239.547 Z M126.923,237.615 C128.701676,237.630333 130.070162,238.209161 131.0285,239.3515 C131.986838,240.493839 132.466,241.839326 132.466,243.388 C132.466,243.740668 132.450667,243.993666 132.42,244.147 L123.91,244.147 C123.91,245.005671 124.23583,245.756997 124.8875,246.401 C125.53917,247.045003 126.309662,247.367 127.199,247.367 C128.226338,247.367 129.046664,246.953004 129.66,246.125 L132.305,246.125 C131.890998,247.075671 131.258504,247.857664 130.4075,248.471 C129.556496,249.084336 128.487006,249.391 127.199,249.391 C125.496991,249.391 124.094006,248.827506 122.99,247.7005 C121.885994,246.573494 121.334,245.136009 121.334,243.388 C121.334,241.777992 121.843828,240.413339 122.8635,239.294 C123.883172,238.174661 125.236325,237.615 126.923,237.615 Z M126.923,239.547 C126.079662,239.547 125.389669,239.815331 124.853,240.352 C124.316331,240.888669 124.009667,241.532663 123.933,242.284 L129.89,242.284 C129.813333,241.517329 129.502836,240.869503 128.9585,240.3405 C128.414164,239.811497 127.735671,239.547 126.923,239.547 Z M138.144,240.145 L138.144,249 L135.568,249 L135.568,240.145 L134.004,240.145 L134.004,237.983 L135.568,237.983 L135.568,236.166 C135.568,234.923994 135.889997,233.973337 136.534,233.314 C137.178003,232.654663 138.105661,232.325 139.317,232.325 C139.976337,232.325 140.535998,232.393999 140.996,232.532 L140.996,234.648 C140.535998,234.525333 140.122002,234.464 139.754,234.464 C138.680661,234.464 138.144,235.046661 138.144,236.212 L138.144,237.983 L142.491,237.983 L142.491,236.166 C142.491,234.923994 142.812997,233.973337 143.457,233.314 C144.101003,232.654663 145.028661,232.325 146.24,232.325 C146.899337,232.325 147.458998,232.393999 147.919,232.532 L147.919,234.648 C147.474331,234.525333 147.060335,234.464 146.677,234.464 C145.603661,234.464 145.067,235.046661 145.067,236.212 L145.067,237.983 L147.528,237.983 L147.528,240.145 L145.067,240.145 L145.067,249 L142.491,249 L142.491,240.145 L138.144,240.145 Z M154.08,237.615 C155.858676,237.630333 157.227162,238.209161 158.1855,239.3515 C159.143838,240.493839 159.623,241.839326 159.623,243.388 C159.623,243.740668 159.607667,243.993666 159.577,244.147 L151.067,244.147 C151.067,245.005671 151.39283,245.756997 152.0445,246.401 C152.69617,247.045003 153.466662,247.367 154.356,247.367 C155.383338,247.367 156.203664,246.953004 156.817,246.125 L159.462,246.125 C159.047998,247.075671 158.415504,247.857664 157.5645,248.471 C156.713496,249.084336 155.644006,249.391 154.356,249.391 C152.653991,249.391 151.251006,248.827506 150.147,247.7005 C149.042994,246.573494 148.491,245.136009 148.491,243.388 C148.491,241.777992 149.000828,240.413339 150.0205,239.294 C151.040172,238.174661 152.393325,237.615 154.08,237.615 Z M154.08,239.547 C153.236662,239.547 152.546669,239.815331 152.01,240.352 C151.473331,240.888669 151.166667,241.532663 151.09,242.284 L157.047,242.284 C156.970333,241.517329 156.659836,240.869503 156.1155,240.3405 C155.571164,239.811497 154.892671,239.547 154.08,239.547 Z M167.279,237.615 C168.720341,237.615 169.877996,237.990663 170.752,238.742 C171.626004,239.493337 172.162666,240.344329 172.362,241.295 L169.717,241.295 C169.318331,240.298328 168.498006,239.8 167.256,239.8 C166.305329,239.8 165.534836,240.129663 164.9445,240.789 C164.354164,241.448337 164.059,242.345328 164.059,243.48 C164.059,244.538005 164.36183,245.419663 164.9675,246.125 C165.57317,246.830337 166.366662,247.183 167.348,247.183 C168.559339,247.183 169.402664,246.631006 169.878,245.527 L172.546,245.527 C172.208665,246.646339 171.606838,247.570163 170.7405,248.2985 C169.874162,249.026837 168.728007,249.391 167.302,249.391 C165.615325,249.391 164.212339,248.842839 163.093,247.7465 C161.973661,246.650161 161.414,245.220342 161.414,243.457 C161.414,241.800992 161.950661,240.413339 163.024,239.294 C164.097339,238.174661 165.515658,237.615 167.279,237.615 Z M173.739,240.145 L173.739,237.983 L175.119,237.983 L175.119,234.464 L177.695,234.464 L177.695,237.983 L180.432,237.983 L180.432,240.145 L177.695,240.145 L177.695,245.067 C177.695,245.78767 177.809999,246.285999 178.04,246.562 C178.270001,246.838001 178.660997,246.976 179.213,246.976 C179.581002,246.976 180.025664,246.914667 180.547,246.792 L180.547,248.885 C179.948997,249.053668 179.297337,249.138 178.592,249.138 C177.303994,249.138 176.403169,248.796837 175.8895,248.1145 C175.375831,247.432163 175.119,246.470006 175.119,245.228 L175.119,240.145 L173.739,240.145 Z M190.112,240.812 L187.743,240.812 C187.681666,240.413331 187.516835,240.091335 187.2485,239.846 C186.980165,239.600665 186.654335,239.478 186.271,239.478 C185.841665,239.478 185.504335,239.592999 185.259,239.823 C185.013665,240.053001 184.891,240.328998 184.891,240.651 C184.891,241.019002 185.040499,241.329499 185.3395,241.5825 C185.638501,241.835501 186.240329,242.115332 187.145,242.422 C189.276344,243.112003 190.342,244.284992 190.342,245.941 C190.342,246.968338 189.977837,247.800163 189.2495,248.4365 C188.521163,249.072837 187.536006,249.391 186.294,249.391 C185.021327,249.391 184.040003,249.07667 183.35,248.448 C182.659997,247.81933 182.261334,246.968339 182.154,245.895 L184.546,245.895 C184.684001,246.968339 185.289661,247.505 186.363,247.505 C186.838336,247.505 187.210165,247.378501 187.4785,247.1255 C187.746835,246.872499 187.881,246.546669 187.881,246.148 C187.881,245.718665 187.716168,245.358335 187.3865,245.067 C187.056832,244.775665 186.455004,244.476668 185.581,244.17 C184.522995,243.832665 183.741003,243.391836 183.235,242.8475 C182.728997,242.303164 182.476,241.609338 182.476,240.766 C182.476,239.845995 182.81333,239.090836 183.488,238.5005 C184.16267,237.910164 185.074994,237.615 186.225,237.615 C187.359672,237.615 188.25283,237.910164 188.9045,238.5005 C189.55617,239.090836 189.958666,239.861329 190.112,240.812 Z M198.984,254.405 L198.984,237.983 L201.491,237.983 L201.491,239.386 L201.56,239.386 C202.556672,238.220661 203.821659,237.638 205.355,237.638 C206.811674,237.638 208.053662,238.186161 209.081,239.2825 C210.108338,240.378839 210.622,241.793325 210.622,243.526 C210.622,245.228009 210.096839,246.630994 209.0465,247.735 C207.996161,248.839006 206.719674,249.391 205.217,249.391 C203.714326,249.391 202.503005,248.816006 201.583,247.666 L201.514,247.666 L201.514,254.405 L198.984,254.405 Z M207.977,243.503 C207.977,242.506328 207.68567,241.655337 207.103,240.95 C206.52033,240.244663 205.700005,239.892 204.642,239.892 C203.721995,239.892 202.951503,240.22933 202.3305,240.904 C201.709497,241.57867 201.399,242.460328 201.399,243.549 C201.399,244.591672 201.717163,245.454163 202.3535,246.1365 C202.989837,246.818837 203.760329,247.16 204.665,247.16 C205.707672,247.16 206.52033,246.795837 207.103,246.0675 C207.68567,245.339163 207.977,244.484338 207.977,243.503 Z M217.933,237.615 C219.711676,237.630333 221.080162,238.209161 222.0385,239.3515 C222.996838,240.493839 223.476,241.839326 223.476,243.388 C223.476,243.740668 223.460667,243.993666 223.43,244.147 L214.92,244.147 C214.92,245.005671 215.24583,245.756997 215.8975,246.401 C216.54917,247.045003 217.319662,247.367 218.209,247.367 C219.236338,247.367 220.056664,246.953004 220.67,246.125 L223.315,246.125 C222.900998,247.075671 222.268504,247.857664 221.4175,248.471 C220.566496,249.084336 219.497006,249.391 218.209,249.391 C216.506991,249.391 215.104006,248.827506 214,247.7005 C212.895994,246.573494 212.344,245.136009 212.344,243.388 C212.344,241.777992 212.853828,240.413339 213.8735,239.294 C214.893172,238.174661 216.246325,237.615 217.933,237.615 Z M217.933,239.547 C217.089662,239.547 216.399669,239.815331 215.863,240.352 C215.326331,240.888669 215.019667,241.532663 214.943,242.284 L220.9,242.284 C220.823333,241.517329 220.512836,240.869503 219.9685,240.3405 C219.424164,239.811497 218.745671,239.547 217.933,239.547 Z M236.905,232.44 L236.905,249 L234.398,249 L234.398,247.689 L234.329,247.689 C233.347662,248.823672 232.075008,249.391 230.511,249.391 C229.146327,249.391 227.931172,248.865839 226.8655,247.8155 C225.799828,246.765161 225.267,245.320009 225.267,243.48 C225.267,241.777991 225.788328,240.375006 226.831,239.271 C227.873672,238.166994 229.146326,237.615 230.649,237.615 C232.136341,237.615 233.355329,238.197661 234.306,239.363 L234.375,239.363 L234.375,232.44 L236.905,232.44 Z M227.912,243.48 C227.912,244.476672 228.199497,245.33533 228.7745,246.056 C229.349503,246.77667 230.165995,247.137 231.224,247.137 C232.113338,247.137 232.88383,246.795837 233.5355,246.1135 C234.18717,245.431163 234.513,244.576338 234.513,243.549 C234.513,242.444994 234.19867,241.548003 233.57,240.858 C232.94133,240.167997 232.167005,239.823 231.247,239.823 C230.204328,239.823 229.387836,240.187163 228.7975,240.9155 C228.207164,241.643837 227.912,242.498662 227.912,243.48 Z M251.047,237.983 L251.047,249 L248.54,249 L248.54,247.597 L248.471,247.597 C247.504995,248.793006 246.247674,249.391 244.699,249.391 C243.334327,249.391 242.111505,248.865839 241.0305,247.8155 C239.949495,246.765161 239.409,245.320009 239.409,243.48 C239.409,241.762658 239.937995,240.359672 240.996,239.271 C242.054005,238.182328 243.349659,237.638 244.883,237.638 C246.355007,237.638 247.558662,238.251327 248.494,239.478 L248.54,239.478 L248.54,237.983 L251.047,237.983 Z M242.054,243.48 C242.054,244.476672 242.341497,245.33533 242.9165,246.056 C243.491503,246.77667 244.315661,247.137 245.389,247.137 C246.263004,247.137 247.02583,246.795837 247.6775,246.1135 C248.32917,245.431163 248.655,244.576338 248.655,243.549 C248.655,242.460328 248.344503,241.571003 247.7235,240.881 C247.102497,240.190997 246.332005,239.846 245.412,239.846 C244.338661,239.846 243.51067,240.20633 242.928,240.927 C242.34533,241.64767 242.054,242.498662 242.054,243.48 Z M254.31,249 L254.31,232.44 L256.886,232.44 L256.886,249 L254.31,249 Z M267.509,240.812 L265.14,240.812 C265.078666,240.413331 264.913835,240.091335 264.6455,239.846 C264.377165,239.600665 264.051335,239.478 263.668,239.478 C263.238665,239.478 262.901335,239.592999 262.656,239.823 C262.410665,240.053001 262.288,240.328998 262.288,240.651 C262.288,241.019002 262.437499,241.329499 262.7365,241.5825 C263.035501,241.835501 263.637329,242.115332 264.542,242.422 C266.673344,243.112003 267.739,244.284992 267.739,245.941 C267.739,246.968338 267.374837,247.800163 266.6465,248.4365 C265.918163,249.072837 264.933006,249.391 263.691,249.391 C262.418327,249.391 261.437003,249.07667 260.747,248.448 C260.056997,247.81933 259.658334,246.968339 259.551,245.895 L261.943,245.895 C262.081001,246.968339 262.686661,247.505 263.76,247.505 C264.235336,247.505 264.607165,247.378501 264.8755,247.1255 C265.143835,246.872499 265.278,246.546669 265.278,246.148 C265.278,245.718665 265.113168,245.358335 264.7835,245.067 C264.453832,244.775665 263.852004,244.476668 262.978,244.17 C261.919995,243.832665 261.138003,243.391836 260.632,242.8475 C260.125997,242.303164 259.873,241.609338 259.873,240.766 C259.873,239.845995 260.21033,239.090836 260.885,238.5005 C261.55967,237.910164 262.471994,237.615 263.622,237.615 C264.756672,237.615 265.64983,237.910164 266.3015,238.5005 C266.95317,239.090836 267.355666,239.861329 267.509,240.812 Z" id="boutiqueefectspedals" fill="#FFFFFF" fill-rule="nonzero"></path>
    </g>
</svg>